# xmcd
#
# Track frame offsets: 
#        150
#        3630
#        12795
#        23095
#        36900
#        48035
#        60367
#        72990
#        85420
#        96537
#        109950
#        122405
#        134345
#        147185
#        157337
#        165677
#        176875
#        187145
#
# Disc length: 2601 seconds
#
# Revision: 3
# Processed by: cddbd v1.4PL0 Copyright (c) Steve Scherf et al.
# Submitted via: ExactAudioCopy v0.90b4
#
DISCID=fd0a2712
DTITLE=Hank Williams - Alone and Forsaken
DYEAR=1995
DGENRE=country
TTITLE0=Spoken Intro by Matt Johnson
TTITLE1=Alone and Forsaken
TTITLE2=Please Don't Let me Love You
TTITLE3=Ramblin Man
TTITLE4=Lonesome Whistle
TTITLE5=Lost Highway
TTITLE6=I'm so Lonesome I Could Cry
TTITLE7=Cold, Cold Heart
TTITLE8=I'll Never Get Out of This World Alive
TTITLE9=I've Been Down That Road Before
TTITLE10=I Saw the Light
TTITLE11=You Win Again
TTITLE12=Please Make up Your Mind
TTITLE13=Someday You'll Call my Name
TTITLE14=Ready to Go Home
TTITLE15=Weary Blues From Waitin
TTITLE16=I Can't Escape From You
TTITLE17=Angel of Death
EXTD=
EXTT0=
EXTT1=
EXTT2=
EXTT3=
EXTT4=
EXTT5=
EXTT6=
EXTT7=
EXTT8=
EXTT9=
EXTT10=
EXTT11=
EXTT12=
EXTT13=
EXTT14=
EXTT15=
EXTT16=
EXTT17=
PLAYORDER=
